<svg width="15" height="16" viewBox="0 0 15 16" fill="none" xmlns="http://www.w3.org/2000/svg">
<g id="Arrow">
<path id="Vector" d="M8.293 2.793C8.48053 2.60553 8.73484 2.50021 9 2.50021C9.26516 2.50021 9.51947 2.60553 9.707 2.793L14.207 7.293C14.3945 7.48053 14.4998 7.73484 14.4998 8C14.4998 8.26516 14.3945 8.51947 14.207 8.707L9.707 13.207C9.5184 13.3892 9.2658 13.49 9.0036 13.4877C8.7414 13.4854 8.49059 13.3802 8.30518 13.1948C8.11977 13.0094 8.0146 12.7586 8.01233 12.4964C8.01005 12.2342 8.11084 11.9816 8.293 11.793L11 9H1.5C1.23478 9 0.98043 8.89464 0.792893 8.70711C0.605357 8.51957 0.5 8.26522 0.5 8C0.5 7.73478 0.605357 7.48043 0.792893 7.29289C0.98043 7.10536 1.23478 7 1.5 7H11L8.293 4.207C8.10553 4.01947 8.00021 3.76516 8.00021 3.5C8.00021 3.23484 8.10553 2.98053 8.293 2.793Z" fill="white"/>
</g>
</svg>
