<svg width="10" height="11" viewBox="0 0 10 11" fill="none" xmlns="http://www.w3.org/2000/svg">
<path d="M3.57653 2.03739C4.21002 0.901422 4.52651 0.333435 5 0.333435C5.47349 0.333435 5.78998 0.901422 6.42347 2.03739L6.58746 2.33139C6.76746 2.65438 6.85746 2.81588 6.99745 2.92237C7.13745 3.02887 7.31245 3.06837 7.66244 3.14737L7.98043 3.21937C9.2104 3.49786 9.82489 3.63686 9.97138 4.10735C10.1174 4.57734 9.69839 5.06782 8.85991 6.0483L8.64291 6.30179C8.40492 6.58029 8.28542 6.71978 8.23192 6.89178C8.17842 7.06428 8.19642 7.25027 8.23242 7.62176L8.26542 7.96026C8.39192 9.26872 8.45542 9.92271 8.07243 10.2132C7.68944 10.5042 7.11345 10.2387 5.96248 9.70871L5.66398 9.57172C5.33699 9.42072 5.1735 9.34572 5 9.34572C4.8265 9.34572 4.66301 9.42072 4.33602 9.57172L4.03802 9.70871C2.88655 10.2387 2.31056 10.5037 1.92807 10.2137C1.54458 9.92271 1.60808 9.26872 1.73458 7.96026L1.76758 7.62226C1.80358 7.25027 1.82157 7.06428 1.76758 6.89228C1.71458 6.71978 1.59508 6.58029 1.35709 6.30229L1.14009 6.0483C0.301611 5.06832 -0.11738 4.57784 0.0286168 4.10735C0.175113 3.63686 0.790099 3.49736 2.02007 3.21937L2.33806 3.14737C2.68755 3.06837 2.86205 3.02887 3.00255 2.92237C3.14254 2.81588 3.23254 2.65438 3.41254 2.33139L3.57653 2.03739Z" fill="black"/>
</svg>
