<svg width="23" height="16" viewBox="0 0 23 16" fill="none" xmlns="http://www.w3.org/2000/svg">
<g clip-path="url(#clip0_2_9)">
<path d="M2.20001 0H10.2C10.6244 0 11.0313 0.168571 11.3314 0.468629C11.6314 0.768687 11.8 1.17565 11.8 1.6C11.8 2.02435 11.6314 2.43131 11.3314 2.73137C11.0313 3.03143 10.6244 3.2 10.2 3.2H2.20001C1.77566 3.2 1.36869 3.03143 1.06864 2.73137C0.768577 2.43131 0.600006 2.02435 0.600006 1.6C0.600006 1.17565 0.768577 0.768687 1.06864 0.468629C1.36869 0.168571 1.77566 0 2.20001 0ZM13.4 12.8H21.4C21.8244 12.8 22.2313 12.9686 22.5314 13.2686C22.8314 13.5687 23 13.9757 23 14.4C23 14.8243 22.8314 15.2313 22.5314 15.5314C22.2313 15.8314 21.8244 16 21.4 16H13.4C12.9757 16 12.5687 15.8314 12.2686 15.5314C11.9686 15.2313 11.8 14.8243 11.8 14.4C11.8 13.9757 11.9686 13.5687 12.2686 13.2686C12.5687 12.9686 12.9757 12.8 13.4 12.8ZM2.20001 6.4H21.4C21.8244 6.4 22.2313 6.56857 22.5314 6.86863C22.8314 7.16869 23 7.57565 23 8C23 8.42435 22.8314 8.83131 22.5314 9.13137C22.2313 9.43143 21.8244 9.6 21.4 9.6H2.20001C1.77566 9.6 1.36869 9.43143 1.06864 9.13137C0.768577 8.83131 0.600006 8.42435 0.600006 8C0.600006 7.57565 0.768577 7.16869 1.06864 6.86863C1.36869 6.56857 1.77566 6.4 2.20001 6.4Z" fill="black"/>
</g>
<defs>
<clipPath id="clip0_2_9">
<rect width="22.4" height="16" fill="white" transform="translate(0.600006)"/>
</clipPath>
</defs>
</svg>
